<svg xmlns="http://www.w3.org/2000/svg" width="531" height="134" viewBox="0 0 531 134">
  <metadata><?xpacket begin="﻿" id="W5M0MpCehiHzreSzNTczkc9d"?>
<x:xmpmeta xmlns:x="adobe:ns:meta/" x:xmptk="Adobe XMP Core 5.6-c140 79.160451, 2017/05/06-01:08:21        ">
   <rdf:RDF xmlns:rdf="http://www.w3.org/1999/02/22-rdf-syntax-ns#">
      <rdf:Description rdf:about=""/>
   </rdf:RDF>
</x:xmpmeta>
                                                                                                    
                                                                                                    
                                                                                                    
                                                                                                    
                                                                                                    
                                                                                                    
                                                                                                    
                                                                                                    
                                                                                                    
                                                                                                    
                                                                                                    
                                                                                                    
                                                                                                    
                                                                                                    
                                                                                                    
                                                                                                    
                                                                                                    
                                                                                                    
                                                                                                    
                                                                                                    
                           
<?xpacket end="w"?></metadata>
<defs>
    <style>
      .cls-1 {
        fill: #f8ab2f;
      }

      .cls-1, .cls-2, .cls-3 {
        fill-rule: evenodd;
      }

      .cls-2 {
        fill: #333;
      }

      .cls-3 {
        fill: #fff;
      }
    </style>
  </defs>
  <g id="Artboard_1" data-name="Artboard 1">
    <path id="HAKU" class="cls-1" d="M88,330.425h22.418v-7.681h-1.765a3.258,3.258,0,0,1-2.472-.839,3.681,3.681,0,0,1-.794-2.6V305.615H126.3V319.3a3.676,3.676,0,0,1-.794,2.6,3.257,3.257,0,0,1-2.471.839h-1.854v7.681h22.506v-7.681H141.4a3.524,3.524,0,0,1-2.648-.839,3.676,3.676,0,0,1-.794-2.6V284.247a3.373,3.373,0,0,1,.794-2.472,3.656,3.656,0,0,1,2.648-.794h2.294V273.3H121.185v7.682h1.854a3.35,3.35,0,0,1,2.515.794,3.655,3.655,0,0,1,.75,2.561v13.6H105.387V284.247a3.5,3.5,0,0,1,.75-2.472,3.348,3.348,0,0,1,2.516-.794h1.765V273.3H88v7.682h2.295a2.818,2.818,0,0,1,3.354,3.266V319.3a3.805,3.805,0,0,1-.75,2.649,3.487,3.487,0,0,1-2.6.8H88v7.681Zm60.457,0h22.065v-7.681h-4.06l3.266-9.713h16.063l3.177,9.713h-4.06v7.681h22.065v-7.681H204.5a6.552,6.552,0,0,1-3.31-.663,4.4,4.4,0,0,1-1.721-2.516L183.408,273.3H172.2l-16.328,46.266a4.51,4.51,0,0,1-1.677,2.516,6.081,6.081,0,0,1-3.177.663h-2.56v7.681Zm23.212-23.751,6.179-18.277,6,18.277h-12.18Zm40.07,23.751h21.888v-7.681h-1.589a2.7,2.7,0,0,1-2.25-.839,3.846,3.846,0,0,1-.662-2.428v-7.594l6.707-7.151,11.739,18.012h-4.854v7.681h22.064v-7.681h-2.824a5.505,5.505,0,0,1-2.648-.574,5.153,5.153,0,0,1-1.853-1.81l-14.828-22.6,13.5-14.391a10.675,10.675,0,0,1,2.118-1.855,5.031,5.031,0,0,1,2.56-.529h3.177V273.3H243.071v7.682h4.06l-18,19.336v-16.07q0-3.179,2.912-3.178h1.589V273.3H211.739v7.682h2.294a2.818,2.818,0,0,1,3.354,3.266v35.23a3.374,3.374,0,0,1-.794,2.472,3.509,3.509,0,0,1-2.56.8h-2.294v7.681Zm84.817,1.324q11.207,0,16.9-4.723t5.693-12.935V284.159a3.219,3.219,0,0,1,.794-2.428,3.651,3.651,0,0,1,2.56-.75h1.941V273.3H302.557v7.682H304.5a3.627,3.627,0,0,1,2.6.75,3.336,3.336,0,0,1,.751,2.428v30.462q0,9.27-11.3,9.27t-11.3-9.27V284.159a3.215,3.215,0,0,1,.8-2.428,3.646,3.646,0,0,1,2.559-.75h1.942V273.3H268.666v7.682h1.941a3.63,3.63,0,0,1,2.6.75,3.341,3.341,0,0,1,.75,2.428v29.932q0,8.211,5.649,12.935t16.946,4.723h0Z" transform="translate(-61 -235)"/>
    <path class="cls-2" d="M334.36,258h220v89h-220V258Z" transform="translate(-61 -235)"/>
    <path id="TABI" class="cls-3" d="M363.617,331h23.035v-7.682h-2.206a3.824,3.824,0,0,1-2.692-.794,3.26,3.26,0,0,1-.839-2.473v-38.5H387.8a3.8,3.8,0,0,1,2.647.751,3.35,3.35,0,0,1,.8,2.516v3.267h8.384V273.872H350.554v14.215h8.385V284.82a3.354,3.354,0,0,1,.794-2.516,3.8,3.8,0,0,1,2.648-.751h6.884v38.5a3.377,3.377,0,0,1-.794,2.473,3.656,3.656,0,0,1-2.648.794h-2.206V331Zm28.86,0h22.065v-7.682h-4.06l3.265-9.712h16.064l3.177,9.712h-4.06V331h22.065v-7.682h-2.471a6.553,6.553,0,0,1-3.31-.662,4.394,4.394,0,0,1-1.721-2.516l-16.063-46.266H416.219l-16.328,46.266a4.515,4.515,0,0,1-1.677,2.516,6.082,6.082,0,0,1-3.177.662h-2.56V331Zm23.212-23.751,6.178-18.277,6,18.277h-12.18ZM453.552,331h32.3q7.236,0,11.518-4.415t4.281-11.566q0-9.623-8.914-13.068a13.777,13.777,0,0,0,7.943-12.714q0-7.416-4.192-11.39T484.8,273.872H453.552v7.681h2.472a2.82,2.82,0,0,1,3.354,3.267v35.053a3.8,3.8,0,0,1-.751,2.649,3.489,3.489,0,0,1-2.6.794h-2.472V331Zm17.387-32.669V281.553H481q8.208,0,8.208,8.3,0,4.151-2.3,6.313a8.636,8.636,0,0,1-6.178,2.163h-9.8Zm0,24.987v-17.04h10.239q4.323,0,6.663,1.942t2.339,6.446q0,4.237-2.162,6.445a7.725,7.725,0,0,1-5.781,2.207h-11.3ZM506.42,331h22.859v-7.682h-2.295a3.346,3.346,0,0,1-2.515-.794,3.5,3.5,0,0,1-.751-2.473V284.82a3.5,3.5,0,0,1,.751-2.472,3.342,3.342,0,0,1,2.515-.8h2.295v-7.681H506.42v7.681h2.294a3.65,3.65,0,0,1,2.648.8,3.373,3.373,0,0,1,.794,2.472v35.053a3.676,3.676,0,0,1-.794,2.605,3.522,3.522,0,0,1-2.648.838H506.42V331Z" transform="translate(-61 -235)"/>
  </g>
</svg>
