<svg xmlns="http://www.w3.org/2000/svg" width="508" height="143" viewBox="0 0 508 143">
  <metadata><?xpacket begin="﻿" id="W5M0MpCehiHzreSzNTczkc9d"?>
<x:xmpmeta xmlns:x="adobe:ns:meta/" x:xmptk="Adobe XMP Core 5.6-c140 79.160451, 2017/05/06-01:08:21        ">
   <rdf:RDF xmlns:rdf="http://www.w3.org/1999/02/22-rdf-syntax-ns#">
      <rdf:Description rdf:about=""/>
   </rdf:RDF>
</x:xmpmeta>
                                                                                                    
                                                                                                    
                                                                                                    
                                                                                                    
                                                                                                    
                                                                                                    
                                                                                                    
                                                                                                    
                                                                                                    
                                                                                                    
                                                                                                    
                                                                                                    
                                                                                                    
                                                                                                    
                                                                                                    
                                                                                                    
                                                                                                    
                                                                                                    
                                                                                                    
                                                                                                    
                           
<?xpacket end="w"?></metadata>
<defs>
    <style>
      .cls-1, .cls-4 {
        fill: #f8ab2f;
      }

      .cls-2, .cls-3 {
        fill: #fff;
      }

      .cls-2, .cls-3, .cls-4 {
        fill-rule: evenodd;
      }

      .cls-3 {
        stroke: #fff;
        stroke-width: 5px;
      }
    </style>
  </defs>
  <g id="Artboard_1" data-name="Artboard 1">
    <rect class="cls-1" x="-29" y="-90" width="573" height="322"/>
    <path id="HAKU" class="cls-2" d="M409.912,386.406h22v-7.55h-1.732a3.192,3.192,0,0,1-2.426-.825,3.616,3.616,0,0,1-.78-2.56V362.02h20.532v13.451a3.616,3.616,0,0,1-.78,2.56,3.193,3.193,0,0,1-2.426.825h-1.819v7.55h22.091v-7.55h-2.253a3.453,3.453,0,0,1-2.6-.825,3.62,3.62,0,0,1-.779-2.56V341.018a3.324,3.324,0,0,1,.779-2.43,3.585,3.585,0,0,1,2.6-.781h2.253v-7.55H442.484v7.55H444.3a3.286,3.286,0,0,1,2.469.781,3.594,3.594,0,0,1,.737,2.517V354.47H426.977V341.018a3.441,3.441,0,0,1,.737-2.43,3.283,3.283,0,0,1,2.469-.781h1.732v-7.55h-22v7.55h2.252a2.769,2.769,0,0,1,3.292,3.211v34.453a3.744,3.744,0,0,1-.737,2.6,3.421,3.421,0,0,1-2.555.781h-2.252v7.55Zm59.34,0H490.91v-7.55h-3.985l3.2-9.546H505.9l3.119,9.546H505.03v7.55h21.657v-7.55h-2.425a6.433,6.433,0,0,1-3.249-.651,4.32,4.32,0,0,1-1.689-2.473l-15.767-45.475h-11l-16.027,45.475a4.437,4.437,0,0,1-1.646,2.473,5.965,5.965,0,0,1-3.118.651h-2.513v7.55Zm22.784-23.345L498.1,345.1l5.891,17.964H492.036Zm39.329,23.345h21.484v-7.55H551.29a2.648,2.648,0,0,1-2.209-.825,3.786,3.786,0,0,1-.65-2.386v-7.464l6.584-7.029,11.521,17.7h-4.764v7.55h21.657v-7.55h-2.772a5.389,5.389,0,0,1-2.6-.564,5.063,5.063,0,0,1-1.819-1.779L561.685,354.3l13.255-14.145a10.453,10.453,0,0,1,2.079-1.823,4.926,4.926,0,0,1,2.512-.521h3.118v-7.55H562.118v7.55H566.1l-17.672,19.006v-15.8q0-3.123,2.859-3.124h1.559v-7.637H531.365v7.55h2.252a2.768,2.768,0,0,1,3.292,3.211v34.627a3.321,3.321,0,0,1-.779,2.43,3.446,3.446,0,0,1-2.513.781h-2.252v7.55Zm83.251,1.3q11,0,16.589-4.643t5.588-12.714V340.932a3.167,3.167,0,0,1,.779-2.387,3.578,3.578,0,0,1,2.513-.738h1.9v-7.55H620.506v7.55h1.906a3.558,3.558,0,0,1,2.556.738,3.284,3.284,0,0,1,.736,2.387v29.94q0,9.113-11.088,9.112t-11.089-9.112v-29.94a3.163,3.163,0,0,1,.78-2.387,3.574,3.574,0,0,1,2.512-.738h1.906v-7.55H587.241v7.55h1.906a3.555,3.555,0,0,1,2.555.738,3.284,3.284,0,0,1,.736,2.387v29.419q0,8.072,5.545,12.714t16.633,4.643h0Z" transform="translate(-383 -289)"/>
    <path class="cls-3" d="M651.727,315.22H863.38V402.7H651.727V315.22Z" transform="translate(-383 -289)"/>
    <path id="TABI" class="cls-4" d="M671.706,386.969h22.61v-7.55H692.15a3.751,3.751,0,0,1-2.642-.781,3.208,3.208,0,0,1-.823-2.43V338.37h6.757a3.727,3.727,0,0,1,2.6.738,3.3,3.3,0,0,1,.78,2.473v3.211h8.23V330.82H658.885v13.972h8.23v-3.211a3.3,3.3,0,0,1,.779-2.473,3.727,3.727,0,0,1,2.6-.738h6.757v37.838a3.321,3.321,0,0,1-.779,2.43,3.585,3.585,0,0,1-2.6.781h-2.166v7.55Zm28.327,0h21.658v-7.55h-3.985l3.2-9.546h15.767l3.118,9.546h-3.985v7.55h21.658v-7.55h-2.426a6.433,6.433,0,0,1-3.249-.651,4.325,4.325,0,0,1-1.689-2.473L734.339,330.82h-11L707.31,376.3a4.432,4.432,0,0,1-1.646,2.473,5.965,5.965,0,0,1-3.118.651h-2.513v7.55Zm22.784-23.345,6.064-17.964,5.891,17.964H722.817Zm37.164,23.345h31.706q7.1,0,11.3-4.339t4.2-11.369q0-9.458-8.75-12.844a13.621,13.621,0,0,0,5.761-5.12,13.766,13.766,0,0,0,2.036-7.376q0-7.29-4.115-11.195t-11.478-3.906H759.981v7.55h2.426a2.768,2.768,0,0,1,3.291,3.211v34.453a3.745,3.745,0,0,1-.736,2.6,3.423,3.423,0,0,1-2.555.781h-2.426v7.55Zm17.066-32.11V338.37h9.876q8.056,0,8.056,8.158a8.129,8.129,0,0,1-2.252,6.2,8.475,8.475,0,0,1-6.064,2.126h-9.616Zm0,24.56V362.67H787.1a9.972,9.972,0,0,1,6.54,1.909q2.3,1.909,2.3,6.335,0,4.165-2.122,6.335a7.577,7.577,0,0,1-5.675,2.17H777.047Zm34.825,7.55h22.437v-7.55h-2.253a3.283,3.283,0,0,1-2.469-.781,3.443,3.443,0,0,1-.736-2.43V341.581a3.446,3.446,0,0,1,.736-2.43,3.283,3.283,0,0,1,2.469-.781h2.253v-7.55H811.872v7.55h2.252a3.585,3.585,0,0,1,2.6.781,3.32,3.32,0,0,1,.78,2.43v34.453a3.616,3.616,0,0,1-.78,2.56,3.453,3.453,0,0,1-2.6.825h-2.252v7.55Z" transform="translate(-383 -289)"/>
  </g>
</svg>
